<svg width="977" height="359" viewBox="0 0 977 359" fill="none" xmlns="http://www.w3.org/2000/svg">
<path d="M53.3832 158.428C54.4832 161.528 55.1832 164.028 56.0832 166.428C59.0832 174.528 64.7832 179.828 73.2832 181.828C81.7832 183.928 90.2832 184.228 98.5832 181.228C108.783 177.528 114.283 169.428 113.583 159.228C113.183 152.328 109.683 147.328 104.083 143.628C98.6832 140.028 92.5832 138.428 86.0832 138.228C80.0832 138.028 74.0832 138.228 68.0832 138.128C63.3832 138.128 62.5832 137.428 62.5832 132.828C62.5165 121.695 62.5165 110.561 62.5832 99.4281C62.5832 94.9281 63.4832 94.2281 68.1832 94.2281C73.4832 94.1281 78.7832 94.4281 84.0832 94.0281C87.9832 93.8281 91.9832 93.2281 95.5832 91.9281C105.683 88.3281 110.983 79.7281 110.183 69.1281C109.483 58.8281 103.083 51.5281 92.4832 49.2281C86.6832 48.0281 80.8832 48.3281 75.2832 50.3281C66.3832 53.5281 61.2832 59.9281 59.1832 68.8281C58.7832 70.3281 58.5832 71.8281 58.2832 73.7281C56.6832 73.8281 55.1832 74.0281 53.6832 74.0281C39.2832 74.0281 24.8832 74.0281 10.4832 74.0281C4.6832 74.0281 3.8832 73.0281 4.4832 67.3281C8.1832 32.8281 32.2832 7.72807 66.7832 2.52807C83.9832 -0.071931 100.983 0.628075 117.483 6.62808C138.983 14.4281 153.983 28.6281 160.183 51.1281C163.283 62.5281 163.383 74.1281 160.583 85.6281C158.283 95.3281 153.583 103.828 146.383 110.828C145.383 111.761 144.417 112.728 143.483 113.728C143.383 113.828 143.283 114.028 143.083 114.528C144.383 115.428 145.683 116.528 146.983 117.528C160.583 127.828 167.483 141.428 168.083 158.428C169.183 187.728 152.883 211.028 126.883 222.528C108.683 230.628 89.4832 232.228 69.9832 230.328C64.5832 229.828 59.0832 228.828 53.8832 227.328C24.7832 219.228 7.7832 199.828 1.2832 170.628C0.883201 168.828 0.583201 167.028 0.283201 165.128C-0.516799 159.128 0.0831976 158.428 5.9832 158.428C9.8832 158.428 13.7832 158.428 17.7832 158.428C27.9165 158.428 38.0165 158.428 48.0832 158.428C49.7832 158.428 51.4832 158.428 53.3832 158.428Z" fill="white"/>
<path d="M350.884 146.828C350.984 148.828 351.184 150.328 351.184 151.828C351.184 167.228 351.084 182.628 351.284 198.028C351.284 201.128 350.284 203.228 348.084 205.228C335.084 217.428 319.684 224.928 302.084 227.228C271.584 231.328 242.884 225.928 217.084 208.828C190.084 190.828 174.284 165.228 169.984 133.128C165.684 101.728 171.684 72.3283 190.584 46.3283C209.384 20.4283 235.484 6.02827 266.884 1.52827C293.084 -2.27173 318.584 0.828259 342.484 12.9283C369.884 26.8283 387.584 48.5282 394.584 78.7282C395.884 84.4282 394.784 85.9283 388.984 85.9283C371.384 85.9283 353.684 85.9283 335.784 85.9283C335.084 84.5283 334.384 83.2283 333.784 81.8283C327.384 67.4283 316.384 58.8283 301.084 55.5283C290.484 53.2283 279.884 53.4283 269.584 56.3283C245.984 63.1283 232.984 79.3283 228.684 102.928C226.684 114.128 227.184 125.228 231.084 135.928C238.984 157.628 254.884 169.628 277.384 173.228C284.984 174.428 292.484 174.228 299.884 172.828C314.584 170.028 326.284 162.628 334.784 150.228C336.584 147.728 338.384 146.528 341.484 146.728C344.484 146.928 347.584 146.828 350.884 146.828Z" fill="white"/>
<path d="M465.185 142.928C444.585 142.928 424.585 142.928 404.585 142.928C403.485 139.528 403.085 104.928 404.085 96.528C405.485 96.428 406.985 96.228 408.485 96.228C425.285 96.228 442.085 96.228 458.885 96.228C464.685 96.228 465.385 96.928 465.385 102.728C465.385 114.595 465.385 126.428 465.385 138.228C465.385 139.628 465.285 140.928 465.185 142.928Z" fill="#BE202E"/>
<path d="M482.682 213.028C482.682 218.228 482.682 222.628 482.682 227.728C488.382 228.028 494.182 227.828 499.882 227.928C505.882 227.928 511.882 227.928 517.882 227.928C523.682 227.928 529.482 227.928 535.682 227.928C535.682 235.628 535.682 242.928 535.682 250.328C532.382 251.428 464.182 251.828 456.582 250.628C456.582 217.928 456.582 185.128 456.582 152.228C460.382 151.228 529.882 151.028 535.682 152.028C535.682 159.428 535.682 166.928 535.682 175.028C517.982 175.028 500.482 175.028 482.682 175.028C482.682 180.128 482.682 184.428 482.682 189.328C499.282 189.328 515.682 189.328 532.482 189.328C532.482 197.328 532.482 204.928 532.482 213.028C515.982 213.028 499.682 213.028 482.682 213.028Z" fill="white"/>
<path d="M355.484 250.928C355.484 214.928 355.484 179.528 355.484 143.428C330.484 143.428 305.784 143.428 280.784 143.428C280.584 141.628 280.284 140.428 280.184 139.328C280.184 126.995 280.184 114.661 280.184 102.328C280.284 97.328 281.284 96.228 286.184 96.228C322.184 96.228 358.184 96.228 394.184 96.228C399.184 96.228 400.184 97.228 400.184 102.328C400.25 149.795 400.25 197.261 400.184 244.728C400.184 250.128 399.184 251.228 393.984 251.228C382.384 251.228 370.684 251.228 359.084 251.228C358.084 251.228 357.084 251.028 355.484 250.928Z" fill="white"/>
<path d="M728.884 176.128C721.184 176.128 714.284 176.128 707.484 176.128C706.15 176.128 704.784 176.128 703.384 176.128C700.884 176.128 699.684 174.728 699.684 172.228C699.684 165.628 699.684 158.928 699.684 152.328C703.584 151.228 777.484 150.928 785.084 151.928C785.084 158.828 785.184 165.828 785.084 172.728C785.084 175.428 783.184 176.128 780.884 176.128C775.584 176.128 770.284 176.128 764.884 176.128C762.184 176.128 759.484 176.128 756.284 176.128C756.284 201.128 756.284 225.728 756.284 251.028C746.884 251.328 738.184 251.228 728.884 251.128C728.884 226.128 728.884 201.528 728.884 176.128Z" fill="white"/>
<path d="M921.884 151.728C921.884 176.728 921.884 201.228 921.884 226.428C939.384 226.728 956.584 226.328 974.084 226.628C974.084 234.828 974.084 242.628 974.084 250.828C947.584 250.828 921.284 250.828 894.984 250.828C893.984 247.228 893.684 158.128 894.784 151.728C903.484 151.728 912.384 151.728 921.884 151.728Z" fill="white"/>
<path d="M822.785 250.928C822.785 217.728 822.785 185.028 822.785 151.828C831.485 151.828 840.185 151.828 849.085 151.828C849.085 184.728 849.085 217.728 849.085 250.928C840.385 250.928 831.885 250.928 822.785 250.928Z" fill="white"/>
<path d="M635.784 200.428C646.884 217.228 657.884 233.728 669.284 250.928C666.784 251.028 665.084 251.228 663.484 251.228C656.584 251.228 649.784 251.028 642.884 251.328C639.284 251.428 636.884 250.328 634.984 247.128C631.384 241.128 627.284 235.428 623.384 229.628C622.384 228.228 621.384 226.828 620.084 225.028C618.984 226.328 617.984 227.228 617.284 228.228C612.884 234.828 608.384 241.328 604.184 247.928C602.684 250.428 600.884 251.328 597.984 251.228C589.284 251.128 580.484 251.228 571.984 251.228C571.684 250.828 571.584 250.628 571.584 250.528C571.484 250.328 571.484 250.128 571.484 250.028C582.284 233.528 593.084 217.028 603.984 200.328C593.384 184.428 582.784 168.428 571.784 151.928C573.484 151.728 574.584 151.428 575.584 151.428C583.484 151.428 591.384 151.628 599.284 151.328C602.284 151.228 603.984 152.428 605.484 154.828C608.984 160.528 612.784 166.028 616.484 171.528C617.384 172.928 618.484 174.228 619.784 176.028C620.884 174.628 621.784 173.728 622.584 172.728C626.651 166.595 630.718 160.428 634.784 154.228C635.784 152.628 636.884 151.328 639.184 151.428C648.184 151.528 657.284 151.528 666.384 151.528C666.684 151.528 666.984 151.828 667.784 152.228C657.184 168.228 646.584 184.128 635.784 200.428Z" fill="white"/>
<path d="M492.408 139.278C492.024 140.046 491.384 140.494 490.488 140.494H487.16C485.944 140.494 485.496 139.662 486.008 138.574L507.512 94.6061C507.896 93.8381 508.216 93.6461 508.728 93.6461C509.24 93.6461 509.56 93.8381 509.944 94.6061L531.448 138.574C531.96 139.662 531.512 140.494 530.296 140.494H526.904C526.008 140.494 525.368 140.046 524.984 139.278L521.4 131.598H495.992L492.408 139.278ZM508.792 104.846L498.552 126.542H518.904L508.792 104.846Z" fill="white"/>
<path d="M540.928 124.686V138.894C540.928 139.918 540.352 140.494 539.328 140.494H536.512C535.488 140.494 534.912 139.918 534.912 138.894V95.2461C534.912 94.2221 535.488 93.6461 536.512 93.6461H555.52C564.544 93.6461 571.008 100.046 571.008 109.198C571.008 117.39 566.464 122.702 559.488 124.302L570.048 138.574C570.816 139.662 570.432 140.494 569.088 140.494H565.632C564.8 140.494 564.224 140.238 563.712 139.534L552.96 124.686H540.928ZM540.928 119.502H554.432C560.64 119.502 565.12 116.43 565.12 109.198C565.12 105.678 563.072 98.6381 554.88 98.6381H540.928V119.502Z" fill="white"/>
<path d="M620.752 135.246C621.776 135.246 622.352 135.822 622.352 136.846V138.958C622.352 139.982 621.776 140.558 620.752 140.558H599.376C582.16 140.558 574.288 129.806 574.288 116.686C574.288 103.438 584.848 92.7501 597.84 92.7501C610.768 92.7501 621.392 102.862 621.392 116.11C621.392 126.606 615.632 133.262 611.28 135.246H620.752ZM580.304 116.686C580.304 126.414 588.176 134.798 597.84 134.798C607.44 134.798 615.312 127.31 615.312 116.686C615.312 106.83 607.44 98.5101 597.84 98.5101C588.176 98.5101 580.304 106.83 580.304 116.686Z" fill="white"/>
<path d="M646.432 141.39C634.656 141.39 626.912 133.774 626.912 121.934V95.2461C626.912 94.2221 627.488 93.6461 628.512 93.6461H631.264C632.288 93.6461 632.864 94.2221 632.864 95.2461V121.614C632.864 133.198 641.312 136.142 646.432 136.142C651.552 136.142 660 133.198 660 121.614V95.2461C660 94.2221 660.576 93.6461 661.6 93.6461H664.352C665.376 93.6461 665.952 94.2221 665.952 95.2461V121.934C665.952 133.774 658.272 141.39 646.432 141.39Z" fill="white"/>
<path d="M678.8 93.6461C679.824 93.6461 680.4 94.2221 680.4 95.2461V138.894C680.4 139.918 679.824 140.494 678.8 140.494H675.984C674.96 140.494 674.384 139.918 674.384 138.894V95.2461C674.384 94.2221 674.96 93.6461 675.984 93.6461H678.8Z" fill="white"/>
<path d="M718.48 93.6461C719.504 93.6461 720.08 94.2221 720.08 95.2461V97.0381C720.08 98.0621 719.504 98.6381 718.48 98.6381H705.872V138.894C705.872 139.918 705.296 140.494 704.272 140.494H701.52C700.496 140.494 699.92 139.918 699.92 138.894V98.6381H687.248C686.224 98.6381 685.648 98.0621 685.648 97.0381V95.2461C685.648 94.2221 686.224 93.6461 687.248 93.6461H718.48Z" fill="white"/>
<path d="M755.848 93.6461C756.552 93.6461 757 94.0941 757 94.7981V97.4861C757 98.1901 756.552 98.6381 755.848 98.6381H729.992V114.766H752.712C753.416 114.766 753.864 115.214 753.864 115.918V118.734C753.864 119.438 753.416 119.886 752.712 119.886H729.992V135.374H755.848C756.552 135.374 757 135.822 757 136.526V139.342C757 140.046 756.552 140.494 755.848 140.494H725.128C724.424 140.494 723.976 140.046 723.976 139.342V94.7981C723.976 94.0941 724.424 93.6461 725.128 93.6461H755.848Z" fill="white"/>
<path d="M803.528 130.254C804.552 130.766 804.744 131.534 804.104 132.43C800.2 137.998 793.8 141.518 785.16 141.518C771.144 141.518 761.096 130.574 761.096 117.134C761.096 103.694 771.144 92.7501 785.16 92.7501C793.16 92.7501 799.88 96.3341 804.104 101.966C804.808 102.862 804.488 103.694 803.464 104.142L800.904 105.166C800.072 105.55 799.368 105.358 798.792 104.59C795.592 100.75 790.856 98.2541 785.16 98.2541C774.664 98.2541 767.112 106.766 767.112 117.134C767.112 127.502 774.664 136.014 785.16 136.014C790.856 136.014 795.592 133.518 798.792 129.614C799.432 128.846 800.072 128.654 800.968 129.102L803.528 130.254Z" fill="white"/>
<path d="M839.48 93.6461C840.504 93.6461 841.08 94.2221 841.08 95.2461V97.0381C841.08 98.0621 840.504 98.6381 839.48 98.6381H826.872V138.894C826.872 139.918 826.296 140.494 825.272 140.494H822.52C821.496 140.494 820.92 139.918 820.92 138.894V98.6381H808.248C807.224 98.6381 806.648 98.0621 806.648 97.0381V95.2461C806.648 94.2221 807.224 93.6461 808.248 93.6461H839.48Z" fill="white"/>
<path d="M864.432 141.39C852.656 141.39 844.912 133.774 844.912 121.934V95.2461C844.912 94.2221 845.488 93.6461 846.512 93.6461H849.264C850.288 93.6461 850.864 94.2221 850.864 95.2461V121.614C850.864 133.198 859.312 136.142 864.432 136.142C869.552 136.142 878 133.198 878 121.614V95.2461C878 94.2221 878.576 93.6461 879.6 93.6461H882.352C883.376 93.6461 883.952 94.2221 883.952 95.2461V121.934C883.952 133.774 876.272 141.39 864.432 141.39Z" fill="white"/>
<path d="M896.928 124.686V138.894C896.928 139.918 896.352 140.494 895.328 140.494H892.512C891.488 140.494 890.912 139.918 890.912 138.894V95.2461C890.912 94.2221 891.488 93.6461 892.512 93.6461H911.52C920.544 93.6461 927.008 100.046 927.008 109.198C927.008 117.39 922.464 122.702 915.488 124.302L926.048 138.574C926.816 139.662 926.432 140.494 925.088 140.494H921.632C920.8 140.494 920.224 140.238 919.712 139.534L908.96 124.686H896.928ZM896.928 119.502H910.432C916.64 119.502 921.12 116.43 921.12 109.198C921.12 105.678 919.072 98.6381 910.88 98.6381H896.928V119.502Z" fill="white"/>
<path d="M935.408 139.278C935.024 140.046 934.384 140.494 933.488 140.494H930.16C928.944 140.494 928.496 139.662 929.008 138.574L950.512 94.6061C950.896 93.8381 951.216 93.6461 951.728 93.6461C952.24 93.6461 952.56 93.8381 952.944 94.6061L974.448 138.574C974.96 139.662 974.512 140.494 973.296 140.494H969.904C969.008 140.494 968.368 140.046 967.984 139.278L964.4 131.598H938.992L935.408 139.278ZM951.792 104.846L941.552 126.542H961.904L951.792 104.846Z" fill="white"/>
<path d="M334.496 336.664C334.816 336.088 335.264 336.024 335.84 336.408C340.064 339.096 345.312 340.76 350.56 340.76C358.176 340.76 364.32 337.752 364.32 330.584C364.32 323.608 357.024 321.048 349.472 319.768C343.392 318.744 332.768 316.888 332.768 307.608C332.768 297.816 341.664 294.68 348.768 294.68C354.208 294.68 358.688 296.088 362.208 298.264C362.72 298.584 362.784 299.032 362.464 299.608L362.016 300.312C361.696 300.824 361.248 300.888 360.672 300.568C356.768 298.264 352.928 297.304 348.256 297.304C343.392 297.304 335.456 299.8 335.456 307.416C335.456 314.968 345.44 316.44 352.736 317.784C358.112 318.808 367.008 321.304 367.008 330.648C367.008 339.672 359.712 343.384 350.816 343.384C344.096 343.384 338.528 341.528 334.304 338.712C333.792 338.392 333.728 337.944 334.048 337.432L334.496 336.664ZM371.857 342.36C371.153 342.36 370.833 341.912 371.153 341.208L392.017 296.152C392.209 295.704 392.593 295.448 392.977 295.448C393.361 295.448 393.681 295.704 393.873 296.152L414.673 341.208C414.993 341.912 414.673 342.36 413.969 342.36H413.137C412.625 342.36 412.241 342.104 412.049 341.656L407.441 331.864H378.385L373.777 341.656C373.585 342.104 373.201 342.36 372.689 342.36H371.857ZM406.289 329.24L392.977 300.184L379.537 329.24H406.289ZM451.937 339.8C452.513 339.8 452.897 340.184 452.897 340.76V341.4C452.897 341.976 452.513 342.36 451.937 342.36H423.649C423.073 342.36 422.689 341.976 422.689 341.4V296.472C422.689 295.896 423.073 295.512 423.649 295.512H424.353C424.929 295.512 425.313 295.896 425.313 296.472V339.8H451.937ZM461.374 338.456C462.654 338.456 463.678 339.416 463.678 340.696C463.678 341.976 462.654 342.872 461.374 342.872C460.094 342.872 459.07 341.976 459.07 340.696C459.07 339.416 460.094 338.456 461.374 338.456ZM507.461 326.104C498.629 326.104 491.845 319.384 491.845 310.744C491.845 302.168 498.373 294.872 507.781 294.872C516.869 294.872 523.397 302.104 523.397 310.872C523.397 313.688 522.949 316.568 521.285 319.96C519.557 323.672 513.029 333.464 507.589 341.72C507.333 342.168 506.949 342.36 506.437 342.36H505.541C504.773 342.36 504.453 341.912 504.901 341.208L516.997 322.776C514.565 324.76 511.685 326.104 507.461 326.104ZM507.717 297.432C500.037 297.432 494.469 303.32 494.469 310.744C494.469 318.296 500.357 323.544 507.717 323.544C514.885 323.544 520.837 318.168 520.837 310.616C520.837 303.256 514.309 297.432 507.717 297.432ZM550.209 343.448C543.873 343.448 539.073 340.568 535.745 336.024C532.417 331.48 530.689 325.4 530.689 319C530.689 311.832 532.737 305.752 536.193 301.4C539.649 297.112 544.513 294.616 550.209 294.616C555.841 294.616 560.833 297.176 564.289 301.528C567.745 305.88 569.793 312.024 569.793 319C569.793 325.592 567.937 331.608 564.609 336.088C561.217 340.568 556.353 343.448 550.209 343.448ZM550.209 297.176C546.369 297.176 542.209 298.712 538.945 302.232C535.681 305.816 533.377 311.256 533.377 319C533.377 324.312 534.721 329.752 537.537 333.912C540.289 338.072 544.513 340.888 550.209 340.888C554.305 340.888 558.593 339.096 561.793 335.448C564.993 331.8 567.169 326.36 567.169 319C567.169 313.368 565.633 307.928 562.689 303.832C559.745 299.8 555.521 297.176 550.209 297.176ZM578.874 316.376C580.154 316.376 581.178 317.336 581.178 318.616C581.178 319.896 580.154 320.792 578.874 320.792C577.594 320.792 576.57 319.896 576.57 318.616C576.57 317.336 577.594 316.376 578.874 316.376ZM578.874 338.456C580.154 338.456 581.178 339.416 581.178 340.696C581.178 341.976 580.154 342.872 578.874 342.872C577.594 342.872 576.57 341.976 576.57 340.696C576.57 339.416 577.594 338.456 578.874 338.456ZM602.449 295.448C603.025 295.448 603.345 295.832 603.345 296.408V341.4C603.345 341.976 602.961 342.36 602.385 342.36H601.681C601.105 342.36 600.721 341.976 600.721 341.4V300.44L593.041 308.056C592.593 308.504 591.953 308.824 591.313 308.184L590.929 307.8C590.481 307.352 590.481 306.84 590.929 306.392L601.361 295.96C601.681 295.64 601.937 295.448 602.449 295.448ZM613.407 296.216C613.407 295.704 613.791 295.448 614.367 295.448H643.807C644.383 295.448 644.767 295.832 644.767 296.408V298.008C644.767 298.456 644.703 298.776 644.447 299.224C641.823 303.896 623.903 336.536 621.087 341.656C620.831 342.168 620.447 342.36 619.935 342.36H618.911C618.207 342.36 617.887 341.848 618.271 341.208L642.143 298.008H614.367C613.791 298.008 613.407 297.688 613.407 297.048V296.216Z" fill="white"/>
</svg>
