<svg width="2800" height="2800" viewBox="0 0 2800 2800" fill="none" xmlns="http://www.w3.org/2000/svg">
<rect width="2800" height="2800" fill="#0E1414"/>
<path d="M1983.13 1482.05C1983.52 1489.79 1984.29 1495.59 1984.29 1501.39C1984.29 1560.95 1983.91 1620.52 1984.68 1680.08C1984.68 1692.07 1980.81 1700.19 1972.3 1707.93C1922.02 1755.12 1862.46 1784.13 1794.39 1793.02C1676.42 1808.88 1565.41 1787.99 1465.62 1721.85C1361.19 1652.23 1300.08 1553.22 1283.45 1429.06C1266.82 1307.61 1290.03 1193.9 1363.13 1093.34C1435.84 993.164 1536.79 937.468 1658.24 920.063C1759.58 905.366 1858.2 917.356 1950.64 964.156C2056.62 1017.92 2125.08 1101.85 2152.15 1218.66C2157.18 1240.7 2152.93 1246.5 2130.5 1246.5C2062.42 1246.5 1993.96 1246.5 1924.73 1246.5C1922.02 1241.09 1919.31 1236.06 1916.99 1230.65C1892.24 1174.95 1849.69 1141.69 1790.52 1128.92C1749.52 1120.03 1708.52 1120.8 1668.68 1132.02C1577.4 1158.32 1527.12 1220.98 1510.49 1312.26C1502.75 1355.58 1504.69 1398.51 1519.77 1439.89C1550.33 1523.82 1611.83 1570.24 1698.85 1584.16C1728.25 1588.8 1757.25 1588.03 1785.88 1582.61C1842.73 1571.78 1887.99 1543.16 1920.86 1495.2C1927.82 1485.53 1934.79 1480.89 1946.78 1481.66C1958.38 1482.44 1970.37 1482.05 1983.13 1482.05Z" fill="white"/>
<path d="M2425.22 1466.97C2345.54 1466.97 2268.19 1466.97 2190.83 1466.97C2186.58 1453.82 2185.03 1319.99 2188.9 1287.5C2194.31 1287.12 2200.12 1286.34 2205.92 1286.34C2270.9 1286.34 2335.87 1286.34 2400.85 1286.34C2423.29 1286.34 2425.99 1289.05 2425.99 1311.48C2425.99 1357.38 2425.99 1403.15 2425.99 1448.79C2425.99 1454.2 2425.61 1459.23 2425.22 1466.97Z" fill="#BE202E"/>
<path d="M832.468 1526.92C836.722 1538.91 839.43 1548.58 842.911 1557.86C854.514 1589.19 876.56 1609.69 909.436 1617.42C942.313 1625.55 975.189 1626.71 1007.29 1615.1C1046.74 1600.79 1068.02 1569.46 1065.31 1530.01C1063.76 1503.32 1050.22 1483.99 1028.56 1469.67C1007.68 1455.75 984.085 1449.56 958.944 1448.79C935.737 1448.01 912.531 1448.79 889.324 1448.4C871.145 1448.4 868.051 1445.69 868.051 1427.9C867.793 1384.84 867.793 1341.78 868.051 1298.72C868.051 1281.31 871.532 1278.61 889.711 1278.61C910.21 1278.22 930.709 1279.38 951.208 1277.83C966.293 1277.06 981.764 1274.74 995.688 1269.71C1034.75 1255.79 1055.25 1222.52 1052.16 1181.52C1049.45 1141.69 1024.7 1113.45 983.698 1104.56C961.265 1099.91 938.832 1101.07 917.172 1108.81C882.749 1121.19 863.023 1145.94 854.901 1180.36C853.354 1186.17 852.58 1191.97 851.42 1199.32C845.231 1199.7 839.43 1200.48 833.628 1200.48C777.932 1200.48 722.236 1200.48 666.54 1200.48C644.107 1200.48 641.013 1196.61 643.333 1174.56C657.644 1041.12 750.857 944.043 884.296 923.931C950.822 913.874 1016.57 916.582 1080.39 939.788C1163.55 969.957 1221.57 1024.88 1245.55 1111.9C1257.54 1156 1257.92 1200.86 1247.09 1245.34C1238.2 1282.86 1220.02 1315.74 1192.17 1342.81C1188.3 1346.42 1184.56 1350.16 1180.95 1354.03C1180.57 1354.41 1180.18 1355.19 1179.41 1357.12C1184.44 1360.6 1189.46 1364.86 1194.49 1368.73C1247.09 1408.56 1273.78 1461.17 1276.1 1526.92C1280.36 1640.24 1217.31 1730.36 1116.75 1774.84C1046.36 1806.17 972.095 1812.36 896.673 1805.01C875.787 1803.08 854.514 1799.21 834.402 1793.41C721.849 1762.08 656.097 1687.04 630.956 1574.1C629.409 1567.14 628.249 1560.18 627.089 1552.83C623.994 1529.62 626.315 1526.92 649.135 1526.92C664.219 1526.92 679.304 1526.92 694.775 1526.92C733.968 1526.92 773.033 1526.92 811.968 1526.92C818.544 1526.92 825.119 1526.92 832.468 1526.92Z" fill="white"/>
<path d="M2000.92 1884.69C2000.92 1745.45 2000.92 1608.53 2000.92 1468.9C1904.23 1468.9 1808.69 1468.9 1712 1468.9C1711.23 1461.94 1710.07 1457.3 1709.68 1453.04C1709.68 1405.34 1709.68 1357.64 1709.68 1309.94C1710.07 1290.6 1713.93 1286.34 1732.89 1286.34C1872.13 1286.34 2011.37 1286.34 2150.61 1286.34C2169.95 1286.34 2173.81 1290.21 2173.81 1309.94C2174.07 1493.53 2174.07 1677.12 2173.81 1860.71C2173.81 1881.59 2169.95 1885.85 2149.83 1885.85C2104.97 1885.85 2059.71 1885.85 2014.85 1885.85C2010.98 1885.85 2007.11 1885.07 2000.92 1884.69Z" fill="white"/>
</svg>
